# Blender v2.92.0 OBJ File: ''
# www.blender.org
mtllib final_map.mtl
o Cube
v 7.651697 3.134204 -9.679556
v 8.252581 -1.000000 -10.439687
v 7.651697 3.134204 9.679556
v 8.252581 -1.000000 10.439687
v -7.651697 3.134204 -9.679556
v -8.252581 -1.000000 -10.439687
v -5.648113 3.134204 6.993475
v -8.252581 -1.000000 10.439687
v 8.252581 3.134204 10.439687
v -8.252581 3.134204 10.439687
v 8.252581 3.134204 -10.439687
v -8.252581 3.134204 -10.439687
v 1.919962 0.761552 -2.428792
v 1.919962 0.761552 2.428792
v -1.919962 0.761552 -2.428792
v -1.919962 0.761552 2.428792
v 7.651697 -0.552193 9.679556
v -5.648113 -0.552193 6.993475
v 7.651697 -0.552193 -9.679556
v -7.651697 -0.552193 -9.679556
v 4.787087 -0.552193 6.055765
v -4.787087 -0.552193 6.055765
v 4.787087 -0.552193 -6.055765
v -4.787087 -0.552193 -6.055765
v -5.572109 3.134204 9.679556
v -7.651697 3.134204 7.053432
v -5.572109 -0.552193 9.679556
v -7.651697 -0.552193 7.053432
vt 0.865899 0.509101
vt 0.634101 0.509101
vt 0.634101 0.509101
vt 0.625000 0.750000
vt 0.375000 1.000000
vt 0.375000 0.750000
vt 0.625000 0.000000
vt 0.375000 0.250000
vt 0.375000 0.000000
vt 0.375000 0.500000
vt 0.125000 0.750000
vt 0.125000 0.500000
vt 0.625000 0.500000
vt 0.625000 0.250000
vt 0.788633 0.740898
vt 0.875000 0.750000
vt 0.634101 0.740898
vt 0.865899 0.663633
vt 0.875000 0.500000
vt 0.634101 0.740898
vt 0.822509 0.697509
vt 0.865899 0.740898
vt 0.788633 0.740898
vt 0.677491 0.697509
vt 0.677491 0.552491
vt 0.822509 0.552491
vt 0.865899 0.586367
vt 0.865899 0.663633
vt 0.865899 0.509101
vt 0.779081 0.595919
vt 0.720919 0.654081
vt 0.720919 0.595919
vt 0.779081 0.654081
vt 0.865899 0.740898
vt 0.711367 0.740898
vt 0.865899 0.586367
vt 0.625000 1.000000
vt 0.711367 0.740898
vn 0.0000 0.0000 1.0000
vn -1.0000 0.0000 0.0000
vn 0.0000 -1.0000 0.0000
vn 1.0000 0.0000 0.0000
vn 0.0000 0.0000 -1.0000
vn 0.0000 1.0000 0.0000
vn 0.0000 0.9402 -0.3406
vn -0.4166 0.9091 0.0000
vn 0.4166 0.9091 0.0000
vn 0.0000 0.9402 0.3406
vn 0.9996 0.0000 -0.0283
vn -0.0299 0.0000 -0.9996
usemtl Material
s off
f 5/1/1 19/2/1 1/3/1
f 9/4/1 8/5/1 4/6/1
f 10/7/2 6/8/2 8/9/2
f 2/10/3 8/11/3 6/12/3
f 11/13/4 4/6/4 2/10/4
f 12/14/5 2/10/5 6/8/5
f 25/15/6 10/16/6 9/4/6
f 3/17/6 11/13/6 1/3/6
f 26/18/6 12/19/6 10/16/6
f 1/3/6 12/19/6 5/1/6
f 1/3/2 17/20/2 3/17/2
f 22/21/6 18/22/6 27/23/6
f 21/24/6 19/2/6 23/25/6
f 24/26/6 20/27/6 28/28/6
f 23/25/6 20/29/6 24/26/6
f 15/30/6 14/31/6 13/32/6
f 13/32/7 24/26/7 15/30/7
f 15/30/8 22/21/8 16/33/8
f 14/31/9 23/25/9 13/32/9
f 16/33/10 21/24/10 14/31/10
f 25/15/11 18/22/11 7/34/11
f 3/35/5 27/23/5 25/15/5
f 26/18/4 20/27/4 5/36/4
f 26/18/12 18/22/12 28/28/12
f 5/1/1 20/29/1 19/2/1
f 9/4/1 10/37/1 8/5/1
f 10/7/2 12/14/2 6/8/2
f 2/10/3 4/6/3 8/11/3
f 11/13/4 9/4/4 4/6/4
f 12/14/5 11/13/5 2/10/5
f 9/4/6 3/35/6 25/15/6
f 25/15/6 7/34/6 10/16/6
f 3/17/6 9/4/6 11/13/6
f 10/16/6 7/34/6 26/18/6
f 26/18/6 5/1/6 12/19/6
f 1/3/6 11/13/6 12/19/6
f 1/3/2 19/2/2 17/20/2
f 17/20/6 21/24/6 27/23/6
f 21/24/6 22/21/6 27/23/6
f 21/24/6 17/20/6 19/2/6
f 18/22/6 22/21/6 28/28/6
f 22/21/6 24/26/6 28/28/6
f 23/25/6 19/2/6 20/29/6
f 15/30/6 16/33/6 14/31/6
f 13/32/7 23/25/7 24/26/7
f 15/30/8 24/26/8 22/21/8
f 14/31/9 21/24/9 23/25/9
f 16/33/10 22/21/10 21/24/10
f 25/15/11 27/23/11 18/22/11
f 3/35/5 17/38/5 27/23/5
f 26/18/4 28/28/4 20/27/4
f 26/18/12 7/34/12 18/22/12
